<?xml version="1.0" encoding="UTF-8" standalone="no"?>
<!-- Created with Inkscape (http://www.inkscape.org/) -->

<svg
   width="38.604038mm"
   height="69.056252mm"
   viewBox="0 0 38.604038 69.056252"
   version="1.1"
   id="svg87044"
   inkscape:version="1.1 (c68e22c387, 2021-05-23)"
   sodipodi:docname="mythra_sword_icon.svg"
   xmlns:inkscape="http://www.inkscape.org/namespaces/inkscape"
   xmlns:sodipodi="http://sodipodi.sourceforge.net/DTD/sodipodi-0.dtd"
   xmlns="http://www.w3.org/2000/svg"
   xmlns:svg="http://www.w3.org/2000/svg">
  <sodipodi:namedview
     id="namedview87046"
     pagecolor="#ffffff"
     bordercolor="#666666"
     borderopacity="1.0"
     inkscape:pageshadow="2"
     inkscape:pageopacity="0.0"
     inkscape:pagecheckerboard="0"
     inkscape:document-units="mm"
     showgrid="true"
     fit-margin-top="0"
     fit-margin-left="0"
     fit-margin-right="0"
     fit-margin-bottom="0"
     inkscape:zoom="2.096401"
     inkscape:cx="68.450645"
     inkscape:cy="126.40712"
     inkscape:window-width="1284"
     inkscape:window-height="1040"
     inkscape:window-x="448"
     inkscape:window-y="0"
     inkscape:window-maximized="0"
     inkscape:current-layer="layer1">
    <inkscape:grid
       type="xygrid"
       id="grid87192"
       originx="-1.1906194"
       originy="-0.13228184" />
  </sodipodi:namedview>
  <defs
     id="defs87041" />
  <g
     inkscape:label="Layer 1"
     inkscape:groupmode="layer"
     id="layer1"
     transform="translate(-1.1906194,-0.13228183)">
    <path
       style="fill:#e1cd98;fill-opacity:1;stroke:#000000;stroke-width:0.264583px;stroke-linecap:butt;stroke-linejoin:miter;stroke-opacity:1"
       d="m 23.97055,64.812393 -2.032,-2.12236 3.1057,-3.90353 1.79536,4.41275 1.07428,-2.62054 -1.17689,-8.27387 1.01571,-6.41764 -5.34907,-10.20549 -2.90616,8.68643 0.89651,2.45879 -0.8364,2.18452 -0.51784,-3.47546 -2.82161,4.42243 2.13162,15.70356 -1.54216,2.01281 -3.52397,-0.68759 -1.64196,2.06904 h 8.99583 l 3.33305,-4.24385"
       id="path29465-6-4-0"
       sodipodi:nodetypes="ccccccccccccccccccc" />
    <path
       style="fill:#e6e6e6;fill-opacity:1;stroke:#000000;stroke-width:0.264583px;stroke-linecap:butt;stroke-linejoin:miter;stroke-opacity:1"
       d="m 10.84792,69.056243 2.10716,-2.83314 3.53267,0.63787 1.10814,-1.52396 -1.70557,-12.91244 -6.08909,11.1551 -2.92206,5.47657 z"
       id="path29730-4-1-6"
       sodipodi:nodetypes="cccccccc" />
    <path
       style="fill:#ffffff;fill-opacity:1;stroke:#000000;stroke-width:0.264583px;stroke-linecap:butt;stroke-linejoin:miter;stroke-opacity:1"
       d="m 21.02236,57.633803 2.40107,-3.20303 -0.6758,-1.46451 -2.08311,2.83115 z"
       id="path30088-0-2-3" />
    <path
       style="fill:#e6e6e6;fill-opacity:1;stroke:#000000;stroke-width:0.264583px;stroke-linecap:butt;stroke-linejoin:miter;stroke-opacity:1"
       d="m 34.13125,9.7895836 -3.18959,9.5438494 -1.0244,0.77703 -2.25762,12.16256 1.57919,3.78814 -1.07466,3.98398 1.18977,1.91758 -0.99801,1.60181 1.69954,3.17024 -1.55695,5.96034 1.91393,5.20856 -4.9794,10.2551 0.49612,0.89747 h 4.7625 l 2.38125,-5.29166 h 2.38125 v -21.16667 h -3.175 v -3.96875 l -1.85208,-1.32292 v -1.5875 l 1.85208,-1.32291 v -11.37709 l 3.175,10e-6 V 9.7895836 Z"
       id="path30158-8-1-2"
       sodipodi:nodetypes="cccccccccccccccccccccccccc" />
    <path
       style="fill:#e6e6e6;fill-opacity:1;stroke:#000000;stroke-width:0.264583px;stroke-linecap:butt;stroke-linejoin:miter;stroke-opacity:1"
       d="m 32.54375,0.26458333 1.54478,3.33067997 -0.0531,5.3042703 -0.42514,-0.13599 -3.0705,9.4868294 -1.36046,1.1945 -2.54493,13.04439 1.33128,3.0356 -0.80744,2.98548 -3.13237,-4.74571 1.45884,-4.90502 -2.9253,-3.76683 0.0475,-1.5394 -2.23882,2.48471 -2.53564,5.50008 0.0233,2.64113 -1.91402,2.892 -1.80157,2.56326 -1.52096,2.05362 -2.21773,2.82121 -1.63625,1.93903 -1.79038,2.11993 -1.28478,1.56013 -1.20949,1.27331 0.52901,-2.28603 0.8344,-2.61516 0.58501,-1.92098 1.02761,-3.11653 1.12051,-3.27531 1.28658,-3.36619 1.27064,-3.03387 0.93976,-2.06131 2.22988,-1.16685 3.02112,-5.12905 2.40292,-8.52654 7.25952,-14.63938967 z"
       id="path30193-9-1-2"
       sodipodi:nodetypes="ccccccccccccccccccccccccccccccccccccc" />
    <path
       style="fill:#e1cd98;fill-opacity:1;stroke:#000000;stroke-width:0.264583px;stroke-linecap:butt;stroke-linejoin:miter;stroke-opacity:1"
       d="m 1.322911,47.889583 2.074629,-6.08739 3.03109,-8.78703 2.5355,-6.60397 2.10907,-4.78773 0.13724,4.06154 0.0869,4.03514 -2.24982,5.35153 -1.80126,4.97958 -1.80972,5.28939 -1.2998,4.41485 -0.879,3.12512 -0.385596,1.39815 1.777346,-1.94419 2.97499,-3.33743 2.18427,-2.58069 3.20479,-4.05416 2.70969,-3.64555 2.39025,-3.60964 6.11317,-3.11242 -0.0695,0.19755 -1.48838,2.39186 -2.41922,3.40979 -3.47281,4.7374 -2.72575,3.61617 -3.05492,3.75829 -4.70264,5.6269 -4.970479,5.65069 z"
       id="path30228-8-2-0"
       sodipodi:nodetypes="ccccccccccccccccccccccccccccc" />
    <path
       style="fill:#63c3a7;fill-opacity:1;stroke:#000000;stroke-width:0.264583px;stroke-linecap:butt;stroke-linejoin:miter;stroke-opacity:1"
       d="m 11.09007,40.032953 -0.70956,-0.55258 3.54732,-7.38701 0.57615,-0.26168 0.61683,0.35473 0.14005,0.91261 z"
       id="path30263-5-1-6" />
    <path
       style="fill:#63c3a7;fill-opacity:1;stroke:#000000;stroke-width:0.264583px;stroke-linecap:butt;stroke-linejoin:miter;stroke-opacity:1"
       d="m 21.24155,21.470513 -0.88483,-0.63067 0.87899,-3.12511 2.49924,-3.2208 0.9692,0.62041 -1.42869,4.09179 z"
       id="path30298-3-7-1" />
    <path
       style="fill:#63c3a7;fill-opacity:1;stroke:#000000;stroke-width:0.214312px;stroke-linecap:butt;stroke-linejoin:miter;stroke-opacity:1"
       d="m 33.07292,23.812493 v 10.80296 l -1.85208,1.36788 v 1.05833 l 1.85208,1.32292 v 3.43958 h 2.38125 2.38125 v -3.43958 l 1.85208,-1.32292 v -1.05833 l -1.85208,-1.32292 v -10.84792 h -2.38125 c -2.10457,-5.3e-4 -1.55972,0 -2.38125,0 z"
       id="path30333-1-4-0-6"
       sodipodi:nodetypes="ccccccccccccccc" />
    <path
       style="fill:#e1cd98;fill-opacity:1;stroke:#000000;stroke-width:0.264583px;stroke-linecap:butt;stroke-linejoin:miter;stroke-opacity:1"
       d="m 19.43036,13.793043 -0.11577,-0.0347 2.64583,-13.49374967 3.96875,-1e-5 z"
       id="path30368-1-7-0"
       sodipodi:nodetypes="ccccc" />
    <path
       style="fill:#e6e6e6;fill-opacity:1;stroke:#000000;stroke-width:0.264583px;stroke-linecap:butt;stroke-linejoin:miter;stroke-opacity:1"
       d="M 20.90209,0.26458333 20.58641,2.6960533 19.84375,0.26458333 Z m -2.38125,0 1.47192,5.38907997 -1.24879,6.3928797 -4.87626,-9.5965397 0.41979,-2.18541997 z"
       id="path30370-6-5-8"
       sodipodi:nodetypes="cccccccccc" />
    <path
       style="fill:#e1cd98;fill-opacity:1;stroke:#000000;stroke-width:0.264583px;stroke-linecap:butt;stroke-linejoin:miter;stroke-opacity:1"
       d="m 12.7,0.26458333 v 0.26458 L 7.14727,9.2525836 7.9375,0.26458333 Z"
       id="path30510-0-2-3"
       sodipodi:nodetypes="ccccc" />
    <path
       style="fill:#e1cd98;fill-opacity:1;stroke:#000000;stroke-width:0.264583px;stroke-linecap:butt;stroke-linejoin:miter;stroke-opacity:1"
       d="m 35.45417,69.056243 v -3.70416 h -1.5875 l -1.5875,3.70416 z"
       id="path54488-6"
       sodipodi:nodetypes="ccccc" />
    <path
       style="fill:#e1cd98;fill-opacity:1;stroke:#000000;stroke-width:0.264583px;stroke-linecap:butt;stroke-linejoin:miter;stroke-opacity:1"
       d="M 33.60208,0.26457333 35.45417,4.2333233 V 0.26457333 Z"
       id="path60987-0" />
  </g>
</svg>
